<svg width="539" height="503" viewBox="0 0 539 503" fill="none" xmlns="http://www.w3.org/2000/svg">
<path d="M165.42 0L300.308 232.367L68.3722 364.211L0 244.272L178.144 191.141L39.7465 72.8652L165.42 0Z" fill="#44F58E"/>
<path fill-rule="evenodd" clip-rule="evenodd" d="M275.002 500.823C289.253 498.589 303.298 493.456 317.137 485.422C335.589 474.711 349.771 461.403 359.684 445.498C369.652 429.69 374.683 412.571 374.779 394.141C374.778 375.768 369.7 357.836 359.547 340.345C349.226 322.565 336.02 309.223 319.929 300.318C303.798 291.565 286.377 287.673 267.665 288.641C248.762 289.72 230.468 295.393 212.785 305.658C198.754 313.803 187.207 323.461 178.144 334.632C169.041 345.955 162.625 358.032 158.894 370.862C155.163 383.693 154.171 396.925 155.918 410.559C157.569 424.248 162.16 437.58 169.691 450.554C177.279 463.625 186.635 474.319 197.759 482.637C208.884 490.956 220.99 496.649 234.078 499.716C247.07 502.839 260.711 503.208 275.002 500.823ZM243.056 391.006C244.547 385.386 248.32 380.819 254.375 377.304C260.141 373.957 265.91 373.049 271.682 374.581C277.358 376.169 281.898 379.894 285.301 385.757C286.974 388.64 288.028 391.562 288.462 394.522C288.951 397.579 288.881 400.446 288.251 403.125C287.582 405.955 286.372 408.52 284.624 410.82C282.779 413.176 280.415 415.19 277.532 416.864C271.477 420.378 265.612 421.342 259.936 419.754C254.22 418.318 249.605 414.573 246.09 408.518C242.575 402.464 241.564 396.626 243.056 391.006Z" fill="#44F58E"/>
<path fill-rule="evenodd" clip-rule="evenodd" d="M339.832 41.0097C329.549 42.6374 319.417 46.358 309.437 52.1717C296.13 59.9232 285.908 69.5443 278.771 81.035C271.593 92.4564 267.98 104.818 267.931 118.12C267.952 131.382 271.637 144.32 278.984 156.934C286.453 169.755 296 179.371 307.624 185.781C319.276 192.081 331.855 194.872 345.36 194.152C359.003 193.352 372.201 189.238 384.953 181.81C395.072 175.915 403.396 168.931 409.925 160.858C416.483 152.675 421.101 143.952 423.78 134.687C426.459 125.422 427.16 115.87 425.885 106.031C424.678 96.152 421.35 86.5342 415.899 77.1778C410.409 67.7522 403.644 60.0433 395.605 54.0513C387.566 48.0593 378.822 43.9634 369.372 41.7638C359.991 39.5237 350.145 39.2724 339.832 41.0097ZM363.011 120.239C361.941 124.297 359.222 127.598 354.856 130.142C350.697 132.564 346.534 133.225 342.366 132.126C338.268 130.986 334.987 128.302 332.525 124.074C331.313 121.995 330.55 119.887 330.234 117.751C329.877 115.545 329.924 113.476 330.376 111.542C330.856 109.498 331.726 107.646 332.986 105.984C334.315 104.281 336.019 102.824 338.098 101.613C342.465 99.0697 346.697 98.3679 350.795 99.5078C354.923 100.538 358.258 103.236 360.802 107.603C363.345 111.969 364.082 116.181 363.011 120.239Z" fill="#44F58E"/>
<path d="M419.475 402.378L321.86 234.806L489.125 139.388L538.606 225.885L410.082 264.429L510.105 349.648L419.475 402.378Z" fill="#44F58E"/>
</svg>
